<?xml version="1.0" encoding="UTF-8" standalone="no"?>
<svg
   xmlns:dc="http://purl.org/dc/elements/1.1/"
   xmlns:cc="http://creativecommons.org/ns#"
   xmlns:rdf="http://www.w3.org/1999/02/22-rdf-syntax-ns#"
   xmlns:svg="http://www.w3.org/2000/svg"
   xmlns="http://www.w3.org/2000/svg"
   id="svg8"
   version="1.1"
   viewBox="0 0 145 55"
   height="55mm"
   width="145mm">
  <defs
     id="defs2" />
  <metadata
     id="metadata5">
    <rdf:RDF>
      <cc:Work
         rdf:about="">
        <dc:format>image/svg+xml</dc:format>
        <dc:type
           rdf:resource="http://purl.org/dc/dcmitype/StillImage" />
        <dc:title></dc:title>
        <cc:license
           rdf:resource="http://creativecommons.org/licenses/by-sa/4.0/" />
      </cc:Work>
      <cc:License
         rdf:about="http://creativecommons.org/licenses/by-sa/4.0/">
        <cc:permits
           rdf:resource="http://creativecommons.org/ns#Reproduction" />
        <cc:permits
           rdf:resource="http://creativecommons.org/ns#Distribution" />
        <cc:requires
           rdf:resource="http://creativecommons.org/ns#Notice" />
        <cc:requires
           rdf:resource="http://creativecommons.org/ns#Attribution" />
        <cc:permits
           rdf:resource="http://creativecommons.org/ns#DerivativeWorks" />
        <cc:requires
           rdf:resource="http://creativecommons.org/ns#ShareAlike" />
      </cc:License>
    </rdf:RDF>
  </metadata>
  <g
     transform="translate(-113.54704,-83.078247)"
     id="layer1">
    <circle
       r="25"
       cy="110.91685"
       cx="140.31657"
       id="path12"
       style="fill:none;fill-opacity:1;fill-rule:evenodd;stroke:#000000;stroke-width:1;stroke-miterlimit:4;stroke-dasharray:none;stroke-opacity:1" />
    <path
       d="m 140.28999,111.91616 -11.818,-20.237919 23.43555,-0.115731 z"
       id="path847"
       style="fill:#477dff;fill-opacity:1;stroke:#000000;stroke-width:1;stroke-miterlimit:4;stroke-dasharray:none;stroke-opacity:1" />
    <path
       d="m 140.28999,111.91616 -4.44038,13.32794 -14.04779,-0.10449 -4.24162,-13.39253 11.42632,-8.17254 z"
       id="path859"
       style="fill:#477dff;fill-opacity:1;stroke:#000000;stroke-width:1;stroke-miterlimit:4;stroke-dasharray:none;stroke-opacity:1" />
    <path
       style="fill:#477dff;fill-opacity:1;stroke:#000000;stroke-width:1;stroke-miterlimit:4;stroke-dasharray:none;stroke-opacity:1"
       id="path859-5"
       d="m 163.01979,112.08524 -4.44039,13.32795 -14.04778,-0.1045 -4.24162,-13.39253 11.42632,-8.17253 z" />
    <g
       transform="matrix(0.5,0,0,0.5,93.510996,56.627732)"
       style="font-style:normal;font-weight:normal;font-size:50.8px;line-height:1.25;font-family:sans-serif;fill:#000000;fill-opacity:1;stroke:none;stroke-width:0.264583"
       id="text2860"
       aria-label="Almetica">
      <path
         id="path2862"
         style="font-style:normal;font-variant:normal;font-weight:normal;font-stretch:normal;font-size:50.8px;font-family:Calibri;-inkscape-font-specification:Calibri;stroke-width:0.264583"
         d="m 177.97308,121.16363 q 0.19843,0.5457 0.19843,0.89296 0.0248,0.32247 -0.17363,0.4961 -0.19844,0.17363 -0.66972,0.22324 -0.44649,0.0496 -1.21543,0.0496 -0.76895,0 -1.24024,-0.0496 -0.44648,-0.0248 -0.69453,-0.0992 -0.22324,-0.0992 -0.34727,-0.24804 -0.0992,-0.14883 -0.19843,-0.37208 l -2.75332,-7.81347 h -13.34493 l -2.62929,7.71426 q -0.0744,0.22324 -0.19844,0.39687 -0.12402,0.14883 -0.37207,0.27285 -0.22324,0.0992 -0.66973,0.14883 -0.42168,0.0496 -1.11621,0.0496 -0.71933,0 -1.19062,-0.0744 -0.44649,-0.0496 -0.64492,-0.22325 -0.17364,-0.17363 -0.17364,-0.49609 0.0248,-0.34727 0.22325,-0.89297 l 10.76523,-29.815232 q 0.0992,-0.272852 0.24805,-0.446485 0.17363,-0.173633 0.47129,-0.272851 0.32246,-0.09922 0.79375,-0.124024 0.49609,-0.04961 1.24023,-0.04961 0.79375,0 1.31465,0.04961 0.5209,0.02481 0.84336,0.124024 0.32246,0.09922 0.49609,0.297656 0.17363,0.173633 0.27285,0.446484 z M 164.15687,94.845853 h -0.0248 l -5.53144,15.999027 h 11.16211 z" />
      <path
         id="path2864"
         style="font-style:normal;font-variant:normal;font-weight:normal;font-stretch:normal;font-size:50.8px;font-family:Calibri;-inkscape-font-specification:Calibri;stroke-width:0.264583"
         d="m 186.92757,122.05659 q 0,0.19844 -0.0992,0.34727 -0.0992,0.12402 -0.32246,0.22324 -0.22324,0.0992 -0.62012,0.14883 -0.39687,0.0496 -1.01699,0.0496 -0.59531,0 -0.99219,-0.0496 -0.39687,-0.0496 -0.64492,-0.14883 -0.22324,-0.0992 -0.32246,-0.22324 -0.0744,-0.14883 -0.0744,-0.34727 V 88.917533 q 0,-0.198438 0.0744,-0.347266 0.0992,-0.148828 0.32246,-0.248047 0.24805,-0.09922 0.64492,-0.148828 0.39688,-0.04961 0.99219,-0.04961 0.62012,0 1.01699,0.04961 0.39688,0.04961 0.62012,0.148828 0.22324,0.09922 0.32246,0.248047 0.0992,0.148828 0.0992,0.347266 z" />
      <path
         id="path2866"
         style="font-style:normal;font-variant:normal;font-weight:normal;font-stretch:normal;font-size:50.8px;font-family:Calibri;-inkscape-font-specification:Calibri;stroke-width:0.264583"
         d="m 227.65686,122.05659 q 0,0.19844 -0.0992,0.34727 -0.0992,0.12402 -0.32247,0.22324 -0.22324,0.0992 -0.62011,0.14883 -0.39688,0.0496 -0.99219,0.0496 -0.62012,0 -1.01699,-0.0496 -0.39688,-0.0496 -0.64492,-0.14883 -0.22325,-0.0992 -0.32246,-0.22324 -0.0992,-0.14883 -0.0992,-0.34727 v -13.56816 q 0,-1.41387 -0.24805,-2.57969 -0.24805,-1.16582 -0.79375,-2.00918 -0.5457,-0.84336 -1.38906,-1.28984 -0.84336,-0.44648 -1.98438,-0.44648 -1.41387,0 -2.85254,1.0914 -1.41386,1.09141 -3.12539,3.19981 v 15.60214 q 0,0.19844 -0.0992,0.34727 -0.0992,0.12402 -0.34726,0.22324 -0.22324,0.0992 -0.62012,0.14883 -0.39687,0.0496 -0.99219,0.0496 -0.5705,0 -0.99218,-0.0496 -0.39688,-0.0496 -0.64493,-0.14883 -0.22324,-0.0992 -0.32246,-0.22324 -0.0744,-0.14883 -0.0744,-0.34727 v -13.56816 q 0,-1.41387 -0.27285,-2.57969 -0.27285,-1.16582 -0.81856,-2.00918 -0.5457,-0.84336 -1.38906,-1.28984 -0.81855,-0.44648 -1.95957,-0.44648 -1.41387,0 -2.85254,1.0914 -1.43867,1.09141 -3.12539,3.19981 v 15.60214 q 0,0.19844 -0.0992,0.34727 -0.0992,0.12402 -0.32246,0.22324 -0.22324,0.0992 -0.62012,0.14883 -0.39687,0.0496 -1.01699,0.0496 -0.59531,0 -0.99219,-0.0496 -0.39687,-0.0496 -0.64492,-0.14883 -0.22324,-0.0992 -0.32246,-0.22324 -0.0744,-0.14883 -0.0744,-0.34727 V 99.732376 q 0,-0.198437 0.0744,-0.32246 0.0744,-0.148829 0.29766,-0.248047 0.22324,-0.124024 0.57051,-0.148828 0.34726,-0.04961 0.91777,-0.04961 0.5457,0 0.89297,0.04961 0.37207,0.0248 0.57051,0.148828 0.19843,0.09922 0.27285,0.248047 0.0992,0.124023 0.0992,0.32246 v 2.951754 q 1.88515,-2.10839 3.64628,-3.075777 1.78594,-0.992187 3.59668,-0.992187 1.38907,0 2.48047,0.32246 1.11621,0.322461 1.95957,0.917774 0.84336,0.57051 1.43867,1.38906 0.59532,0.79375 0.99219,1.78594 1.11621,-1.21543 2.1084,-2.05879 1.01699,-0.84336 1.93477,-1.364257 0.94257,-0.520898 1.81074,-0.744141 0.89297,-0.248046 1.78594,-0.248046 2.158,0 3.62148,0.768945 1.46348,0.744139 2.35645,2.009179 0.91777,1.26504 1.28984,2.97656 0.39687,1.68672 0.39687,3.57188 z" />
      <path
         id="path2868"
         style="font-style:normal;font-variant:normal;font-weight:normal;font-stretch:normal;font-size:50.8px;font-family:Calibri;-inkscape-font-specification:Calibri;stroke-width:0.264583"
         d="m 254.17307,109.9271 q 0,0.96739 -0.49609,1.38907 -0.47129,0.39687 -1.09141,0.39687 h -14.63476 q 0,1.86035 0.37207,3.34863 0.37207,1.48828 1.24023,2.55489 0.86817,1.0666 2.25723,1.63711 1.38906,0.5705 3.39824,0.5705 1.5875,0 2.82774,-0.24804 1.24023,-0.27286 2.1332,-0.59532 0.91777,-0.32246 1.48828,-0.5705 0.59531,-0.27286 0.89297,-0.27286 0.17363,0 0.29766,0.0992 0.14882,0.0744 0.22324,0.24805 0.0744,0.17363 0.0992,0.49609 0.0496,0.29766 0.0496,0.74414 0,0.32247 -0.0248,0.57051 -0.0248,0.22324 -0.0744,0.42168 -0.0248,0.17363 -0.12403,0.32246 -0.0744,0.14883 -0.22324,0.29766 -0.12402,0.12402 -0.79375,0.44648 -0.66973,0.29766 -1.73633,0.59532 -1.0666,0.29765 -2.48047,0.52089 -1.38906,0.24805 -2.97656,0.24805 -2.75332,0 -4.83691,-0.76894 -2.05879,-0.76895 -3.47266,-2.28204 -1.41387,-1.51308 -2.1332,-3.79511 -0.71934,-2.28203 -0.71934,-5.30821 0,-2.87734 0.74414,-5.15937 0.74414,-2.30684 2.13321,-3.89434 1.41386,-1.6123 3.39824,-2.45566 1.98437,-0.868164 4.44004,-0.868164 2.62929,0 4.46484,0.843359 1.86035,0.843355 3.05098,2.282035 1.19062,1.41386 1.73633,3.34863 0.5705,1.90996 0.5705,4.09277 z m -4.11757,-1.21543 q 0.0744,-3.22461 -1.43868,-5.06015 -1.48828,-1.83555 -4.44003,-1.83555 -1.51309,0 -2.65411,0.57051 -1.14101,0.57051 -1.90996,1.51308 -0.76894,0.94258 -1.19062,2.20762 -0.42168,1.24024 -0.47129,2.60449 z" />
      <path
         id="path2870"
         style="font-style:normal;font-variant:normal;font-weight:normal;font-stretch:normal;font-size:50.8px;font-family:Calibri;-inkscape-font-specification:Calibri;stroke-width:0.264583"
         d="m 279.54827,99.087455 q 0.74414,0 1.01699,0.347265 0.27286,0.322461 0.27286,0.96738 v 21.65449 q 0,0.19844 -0.0992,0.34727 -0.0992,0.12402 -0.34727,0.22324 -0.22324,0.0992 -0.62012,0.14883 -0.39687,0.0496 -0.96738,0.0496 -0.62012,0 -1.01699,-0.0496 -0.39688,-0.0496 -0.64492,-0.14883 -0.22324,-0.0992 -0.32246,-0.22324 -0.0992,-0.14883 -0.0992,-0.34727 V 102.4857 H 265.1864 v 12.45195 q 0,2.30684 0.66973,3.49746 0.69453,1.16582 2.45566,1.16582 0.57051,0 1.01699,-0.0992 0.44649,-0.12402 0.79375,-0.24804 0.34727,-0.12403 0.59531,-0.22325 0.24805,-0.12402 0.44649,-0.12402 0.12402,0 0.22324,0.0744 0.12402,0.0496 0.17363,0.22325 0.0744,0.17363 0.12403,0.47128 0.0496,0.29766 0.0496,0.74415 0,0.71933 -0.0992,1.14101 -0.0992,0.39688 -0.29766,0.62012 -0.19844,0.19844 -0.59531,0.37207 -0.39688,0.17363 -0.91777,0.27285 -0.4961,0.12402 -1.06661,0.19844 -0.5705,0.0744 -1.14101,0.0744 -1.73633,0 -2.97656,-0.44648 -1.24024,-0.47129 -2.03399,-1.38907 -0.79375,-0.94257 -1.16582,-2.35644 -0.34726,-1.43867 -0.34726,-3.37344 V 102.4857 h -3.1254 q -0.37207,0 -0.59531,-0.39688 -0.22324,-0.39687 -0.22324,-1.28984 0,-0.47129 0.0496,-0.79375 0.0744,-0.322463 0.17363,-0.5209 0.0992,-0.223243 0.24805,-0.297657 0.17363,-0.09922 0.37207,-0.09922 h 3.10059 V 93.77925 q 0,-0.173633 0.0744,-0.322461 0.0992,-0.148829 0.32246,-0.248047 0.24805,-0.124024 0.64492,-0.173633 0.39688,-0.04961 0.99219,-0.04961 0.62012,0 1.01699,0.04961 0.39688,0.04961 0.62012,0.173633 0.22324,0.09922 0.32246,0.248047 0.0992,0.148828 0.0992,0.322461 v 5.308203 z m 1.76114,-6.895703 q 0,1.438671 -0.54571,1.95957 -0.5457,0.520898 -2.00918,0.520898 -1.43867,0 -1.98437,-0.496093 -0.5209,-0.520899 -0.5209,-1.934766 0,-1.438672 0.5457,-1.95957 0.54571,-0.520899 2.00918,-0.520899 1.43867,0 1.95957,0.520899 0.54571,0.496093 0.54571,1.909961 z m -8.35918,6.895703 z" />
      <path
         id="path2872"
         style="font-style:normal;font-variant:normal;font-weight:normal;font-stretch:normal;font-size:50.8px;font-family:Calibri;-inkscape-font-specification:Calibri;stroke-width:0.264583"
         d="m 304.45218,118.65835 q 0,0.42168 -0.0248,0.74414 -0.0248,0.29766 -0.0992,0.5209 -0.0496,0.19844 -0.14883,0.37207 -0.0744,0.14883 -0.39688,0.47129 -0.29765,0.29766 -1.04179,0.76895 -0.74415,0.44648 -1.68672,0.81855 -0.91778,0.34727 -2.00918,0.57051 -1.09141,0.22324 -2.25723,0.22324 -2.40605,0 -4.26641,-0.79375 -1.86035,-0.79375 -3.12539,-2.30683 -1.24023,-1.5379 -1.90996,-3.74551 -0.64492,-2.23242 -0.64492,-5.13457 0,-3.29903 0.79375,-5.65547 0.81856,-2.38125 2.20762,-3.89434 1.41387,-1.51308 3.29902,-2.232419 1.90996,-0.744141 4.11758,-0.744141 1.0666,0 2.05879,0.198438 1.01699,0.198437 1.86035,0.520898 0.84336,0.322461 1.48828,0.744144 0.66973,0.42168 0.96738,0.71933 0.29766,0.29766 0.39688,0.47129 0.12402,0.17363 0.19844,0.42168 0.0744,0.22324 0.0992,0.5209 0.0248,0.29766 0.0248,0.74414 0,0.96738 -0.22324,1.36426 -0.22324,0.37207 -0.54571,0.37207 -0.37207,0 -0.86816,-0.39688 -0.47129,-0.42168 -1.21543,-0.91777 -0.74414,-0.49609 -1.81074,-0.89297 -1.0418,-0.42168 -2.48047,-0.42168 -2.95176,0 -4.53926,2.28203 -1.56269,2.25723 -1.56269,6.57325 0,2.158 0.39687,3.79511 0.42168,1.61231 1.21543,2.70371 0.79375,1.09141 1.93477,1.63711 1.16582,0.5209 2.6541,0.5209 1.41387,0 2.48047,-0.44648 1.0666,-0.44649 1.83554,-0.96739 0.79375,-0.5457 1.31465,-0.96738 0.54571,-0.44648 0.84336,-0.44648 0.17363,0 0.29766,0.0992 0.12402,0.0992 0.19844,0.34726 0.0992,0.22324 0.12402,0.59531 0.0496,0.34727 0.0496,0.84336 z" />
      <path
         id="path2874"
         style="font-style:normal;font-variant:normal;font-weight:normal;font-stretch:normal;font-size:50.8px;font-family:Calibri;-inkscape-font-specification:Calibri;stroke-width:0.264583"
         d="m 326.35471,122.0814 q 0,0.29766 -0.19843,0.44648 -0.19844,0.14883 -0.54571,0.22325 -0.34726,0.0744 -1.01699,0.0744 -0.64492,0 -1.04179,-0.0744 -0.37208,-0.0744 -0.54571,-0.22325 -0.17363,-0.14882 -0.17363,-0.44648 v -2.23242 q -1.46348,1.56269 -3.27422,2.43086 -1.78594,0.86816 -3.79512,0.86816 -1.76113,0 -3.1998,-0.47129 -1.41387,-0.44648 -2.43086,-1.31465 -0.99219,-0.86816 -1.5627,-2.1332 -0.5457,-1.26504 -0.5457,-2.87734 0,-1.88516 0.76895,-3.27422 0.76894,-1.38906 2.20761,-2.30684 1.43868,-0.91777 3.52227,-1.36426 2.08359,-0.47128 4.68808,-0.47128 h 3.07579 v -1.73633 q 0,-1.28985 -0.27286,-2.28203 -0.27285,-0.99219 -0.89296,-1.63711 -0.59532,-0.66973 -1.5627,-0.99219 -0.96738,-0.34727 -2.38125,-0.34727 -1.51309,0 -2.72852,0.37207 -1.19062,0.34727 -2.10839,0.79375 -0.89297,0.42168 -1.51309,0.79375 -0.59531,0.34727 -0.89297,0.34727 -0.19844,0 -0.34726,-0.0992 -0.14883,-0.0992 -0.27286,-0.29766 -0.0992,-0.19843 -0.14882,-0.49609 -0.0496,-0.32246 -0.0496,-0.69453 0,-0.62012 0.0744,-0.96738 0.0992,-0.37207 0.42168,-0.69453 0.34727,-0.32247 1.16582,-0.74415 0.81856,-0.446479 1.88516,-0.793745 1.0666,-0.37207 2.33164,-0.595313 1.26504,-0.248046 2.55488,-0.248046 2.40606,0 4.09277,0.545703 1.68672,0.545703 2.72852,1.612301 1.0418,1.0418 1.51309,2.6045 0.47128,1.56269 0.47128,3.64628 z m -4.06796,-10.19473 h -3.49746 q -1.68672,0 -2.92696,0.29766 -1.24023,0.27285 -2.05879,0.84336 -0.81855,0.5457 -1.21543,1.33945 -0.37207,0.76895 -0.37207,1.78594 0,1.73633 1.09141,2.77812 1.11621,1.017 3.10059,1.017 1.6123,0 2.97656,-0.81856 1.38906,-0.81855 2.90215,-2.50527 z" />
    </g>
  </g>
</svg>
